<svg xmlns="http://www.w3.org/2000/svg" viewBox="0 0 656 656" fill="#2c7bc4">
  <path d="M657 270.531c-3.635 6.046-7.342 11.577-10.877 17.216-1.934 3.086-4.341 5.34-7.877 6.503-3.154 1.038-6.105 2.732-9.286 3.646-14.493 4.165-25.127 13.976-35.697 23.953-24.474 23.1-48.992 46.155-73.466 69.255-1.177 1.11-2.688 2.016-3.194 4.19 2.446 2.834 5.08 5.801 7.619 8.848 4.713 5.656 4.369 10.964-.592 16.368-5.694 6.203-11.849 11.185-20.23 13.848-11.226 3.566-17.54 12.396-19.938 23.694-1.369 6.446-4.043 11.724-8.8 16.342-29.656 28.781-59.155 57.722-88.736 86.58-13.776 13.439-34.728 14.005-50.905.631-9.383-7.757-18.126-16.505-19.871-29.572-1.53-11.454.669-22.051 9.206-30.33 29.547-28.652 59.89-56.458 90.166-84.333 2.574-2.37 5.057-4.842 7.701-7.13 2.969-2.57 6.512-4.204 10.391-4.493 14.621-1.09 23.156-9.527 26.811-22.951 2.156-7.916 7.663-12.65 13.44-17.322 3.912-3.163 8.18-1.773 12.163.455 2.961 1.656 5.358 4.039 7.467 6.582 2.86 3.45 4.992 3.007 8.09.078 21.426-20.265 43.007-40.367 64.55-60.509 7.91-7.394 15.782-14.83 23.798-22.105 9.034-8.199 13.453-19.345 19.058-29.692 2.437-4.497 5.502-7.58 10.145-9.694 8.486-3.865 16.895-7.949 25.066-12.435 4.108-2.255 7-2.05 9.832 1.626.891 1.157 2.232 1.968 3.666 3.079.3 9.162.3 18.183.3 27.672zm-234.985-48.497c-13.545-11.999-26.74-23.967-39.898-35.975-20.302-18.53-40.667-36.994-60.789-55.717-3.887-3.617-5.926-1.46-8.616 1.032-29.571 27.403-59.227 54.715-88.754 82.166-28.795 26.773-57.468 53.677-86.188 80.531-.838.784-1.589 1.66-3.4 3.568 6.621 0 12.147.25 17.638-.078 4.527-.27 6.176 1.302 6.167 5.893-.11 55.496-.096 110.993-.06 166.489.002 2.876-.915 5.059-2.98 7.063-6.218 6.034-12.487 12.036-18.365 18.393-3.417 3.696-7.52 3.078-11.569 2.91-2.624-.109-2.066-2.671-2.085-4.35-.101-8.998-.092-17.998-.09-26.997.009-42.83.035-85.66.035-128.49 0-8.144-.045-8.142-8.216-8.14-18.666.002-37.332.014-55.997-.012-2.102-.003-4.61.56-5.728-1.954-1.21-2.721.285-4.858 2.192-6.632 10.855-10.098 21.755-20.148 32.622-30.233 16.605-15.412 33.18-30.858 49.799-46.255 12.34-11.434 24.734-22.808 37.088-34.226 1.467-1.356 2.83-2.823 4.249-4.231 1.602-1.59 1.573-3.07-.022-4.731-7.962-8.291-14.556-18.16-23.144-25.446-11.545-9.794-26.195-14.726-41.526-10.124-15.09 4.53-24.745 15.709-26.644 31.306C85.797 213.706 74.15 221 63.448 229.402c-4.38 3.438-9.18 1.78-13.351-1.411-5.457-4.176-9.884-9.417-14.694-14.26-7.866-7.918-15.66-15.907-23.54-23.811-9.307-9.336-7.564-17.603.727-23.676 1.728-1.266 3.22-2.914 4.625-4.553 6.076-7.084 13.435-11.038 22.895-12.78 20.852-3.838 32.014-16.122 35.42-37.171.587-3.622 1.854-6.83 4.282-9.374 18.445-19.317 37.549-37.849 60.973-51.278 21.34-12.234 44.105-18.711 68.811-19.641 26.824-1.01 51.654 5.935 75.863 16.278 3.635 1.553 6.953 3.935 10.234 6.2 2.567 1.772 4.63 4.15 2.958 7.592-1.664 3.424-4.896 3.278-7.842 2.512-8.048-2.09-16.142-3.752-24.395-4.916-25.886-3.65-48.71 3.379-69.342 18.877-5.742 4.313-11.327 8.75-16.172 14.081-7.78 8.56-9.267 17.95-4.404 28.534 3.607 7.85 7.787 15.474 10 23.926.316 1.21 1.275 2.32 2.131 3.309 6.877 7.93 13.82 15.796 21.336 23.147 2.62 2.562 4.46 3 7.444.243 30.353-28.034 60.838-55.926 91.291-83.851a100.687 100.687 0 0 1 4.141-3.615c3.475-2.853 6.795-2.888 10.247.257 21.307 19.412 42.69 38.74 64.003 58.146 18.6 16.936 37.136 33.944 55.713 50.906 4.776 4.36 4.866 4.407.329 8.798-6.932 6.709-13.274 14.025-21.116 20.163z"/>
  <path d="M620.79 126.837a28868.042 28868.042 0 0 1 22.481-30.864c3.13 4.028 4.105 8.202 5.272 12.269 8.798 30.655 2.7 57.982-18.977 81.406-14.762 15.952-32.808 25.216-55.14 24.777-7.644-.15-15.28-.07-22.946.662-6.563.628-11.697 3.153-16.217 7.71-33.902 34.18-67.847 68.318-101.782 102.465a43798.702 43798.702 0 0 1-40.538 40.742c-.898.901-1.609 2.153-3.105 2.179-1.506-1.003-.961-2.464-.962-3.696-.024-29.987.069-59.975-.09-89.962-.025-4.724 1.508-8.076 4.837-11.38 29.082-28.866 57.824-58.075 87.096-86.745 9.257-9.067 11.28-19.352 9.5-31.383-2.743-18.535-2.915-36.998 5.871-54.15 12.825-25.038 32.995-39.805 61.552-42.338 6.187-.548 12.23-.456 18.325.544 1.09 2.436-.747 3.884-1.757 5.408-10.394 15.683-20.754 31.392-31.426 46.885-2.544 3.694-3.234 6.88-1.52 11.034 4.454 10.79 9.186 21.409 15.73 31.143 1.684 2.503 3.596 3.78 6.762 4.303 11.476 1.894 23.043 3.006 34.549 4.606 3.015.419 4.665-.866 6.221-3.043 5.324-7.447 10.708-14.852 16.265-22.572zM151.42 507.43a126502.51 126502.51 0 0 0 88.626-88.527c2.387-2.388 4.931-4.3 8.217-5.429 3.704-1.272 4.824-.091 4.802 3.532-.081 13.158-.031 26.317-.051 39.475-.02 12.992-.125 25.984-.059 38.975.018 3.558-1.077 6.202-3.71 8.778-16.782 16.423-33.346 33.069-50.072 49.551-3.426 3.376-5.017 7.113-4.93 11.99.168 9.292.816 18.647-1.358 27.832-5.485 23.181-21.463 35.466-43.337 41.526-2.868.794-5.9.972-8.8 1.671-3.57.86-6.558-.164-9.31-2.326a25.668 25.668 0 0 1-1.896-1.623c-11.663-11.157-11.6-12.663.42-23.069 4.405-3.812 8.61-7.854 12.924-11.773 3.905-3.549 4.513-8.212 3.54-12.879-1.49-7.157-4.74-13.535-10.867-17.963a289.82 289.82 0 0 0-13.197-8.987c-5.258-3.375-7.78-3.133-12.51 1.015-5.632 4.937-11.28 9.86-16.747 14.977-2.353 2.202-4.116 2.04-6.354-.06-5.108-4.794-10.068-9.701-14.022-15.526-2.318-3.414-3.2-7.304-1.157-10.865 6.713-11.699 13.674-23.304 25.685-30.56 11.447-6.916 23.923-6.49 36.32-4.1 7.187 1.384 12.753-.236 17.843-5.635z"/>
  <path d="M361.35 404.07c-.002 14.653-.08 28.814.054 42.974.03 3.249-.892 5.654-3.275 7.9-13.693 12.91-27.254 25.96-40.902 38.918-11.128 10.565-14.515 23.745-13.549 38.596.819 12.577 6.196 22.9 16.308 32.37H204.114c-.244-2.778 1.885-3.946 3.334-5.353 9.08-8.819 18.303-17.49 27.368-26.325 2.044-1.991 4.384-2.15 6.895-2.156 9.163-.02 18.331-.23 27.485.052 4.49.137 5.65-1.535 5.637-5.809-.113-40.315-.045-80.63-.03-120.947.003-7.614.001-7.62 7.768-7.62 23.99-.002 47.98-.005 71.969.002 6.733.002 6.733.018 6.81 7.397zM513.14 497c-.003 20.981-.127 41.464.076 61.943.048 4.95-1.45 6.58-6.554 6.55-34.967-.205-69.936-.103-104.904-.115-1.592 0-3.263.27-4.68-.587-.018-1.63 1.056-2.255 1.856-3.046 8.523-8.43 17.257-16.66 25.49-25.362 3.917-4.14 8.148-5.639 13.68-5.502 11.484.283 22.982-.07 34.465.197 4.808.113 6.308-1.547 6.181-6.334-.308-11.647-.05-23.31-.133-34.965-.02-2.67.55-4.801 2.739-6.563 6.68-5.379 10.086-12.523 11.4-20.937 1.48-9.49 6.572-16.184 16.072-19.045 1.283-.386 2.52-.887 4.313.27V497zm21.032-171.75c-4.269 6.016-10.298 5.359-16.08 5.014-4.287-.256-6.287 1.172-5.75 5.652.216 1.806-.222 3.703.082 5.483 1.762 10.303-5.746 15.412-11.553 21.857-4.94-4.102-9.003-8.589-15.087-10.212-7.827-2.087-7.753-2.229-7.73-10.69.032-12.643-.022-25.286.016-37.93.02-6.658.157-6.75 6.62-6.788 3.33-.02 6.66-.002 9.991-.021 1.172-.007 2.478.031 3.081-1.19.695-1.406-.167-2.535-1.037-3.587-2.318-2.803-5.827-4.43-8.083-8.263 5.768-6.013 11.582-12.107 17.432-18.165 7.293-7.55 7.307-7.538 15.174-.291 11.143 10.264 22.267 20.548 33.445 30.772 1.466 1.341 3.206 2.383 5.181 3.829-8.61 9.306-17.266 16.547-25.702 24.53zm-212.61-57.939c-.721-12.63-.721-12.637 11.627-12.659 7.8-.013 15.6-.002 23.165-.002 1.552 2.442.954 4.663.968 6.764.067 10.658-.086 21.318.107 31.973.062 3.38-.82 4.846-4.408 4.786-9.323-.155-18.65-.083-27.975-.028-2.746.016-3.764-1.014-3.691-3.893.223-8.82.163-17.647.207-26.94zm-39.225 30.647c-2.95-.647-2.657-2.682-2.661-4.463-.03-11.485.054-22.97-.059-34.453-.031-3.178 1.069-4.46 4.33-4.412 8.986.133 17.978.16 26.962-.018 3.625-.07 4.513 1.525 4.478 4.8-.118 11.151-.212 22.307.044 33.453.1 4.394-1.816 5.384-5.668 5.305-8.984-.183-17.973-.121-27.426-.212zm75.014 17.096c.005 8.647-.143 16.807.082 24.956.104 3.748-1.332 5.005-4.926 4.949-8.819-.136-17.642-.031-26.463-.07-2.25-.009-4.436-.195-4.43-3.352.025-12.782.01-25.564.01-38.93 8.484 0 16.587-.004 24.69 0 11.042.005 11.042.007 11.037 10.957v1.49zm-42.664 28.834c-10.566 1.622-20.891.785-31.191 1.01-2.64.057-3.885-1.164-3.867-3.95.074-11.485.027-22.973.027-34.46 0-1.952.23-3.774 2.813-3.777 10.771-.012 21.543-.005 32.51-.005 0 13.726 0 27.31-.292 41.182z"/>
</svg>
